<mxfile host="app.diagrams.net" agent="Mozilla/5.0 (Windows NT 10.0; Win64; x64) AppleWebKit/537.36 (KHTML, like Gecko) Chrome/127.0.0.0 Safari/537.36" version="24.7.6">
  <diagram name="ページ1" id="VwTjASdEL7KmoYmHlcBj">
    <mxGraphModel dx="1290" dy="522" grid="1" gridSize="10" guides="1" tooltips="1" connect="1" arrows="1" fold="1" page="1" pageScale="1" pageWidth="827" pageHeight="1169" math="0" shadow="0">
      <root>
        <mxCell id="0" />
        <mxCell id="1" parent="0" />
        <mxCell id="bobE95oRSobrlzRdIuCV-1" value="ログイン前画面(top)" style="rounded=1;whiteSpace=wrap;html=1;" vertex="1" parent="1">
          <mxGeometry x="10" y="200" width="120" height="60" as="geometry" />
        </mxCell>
        <mxCell id="bobE95oRSobrlzRdIuCV-5" value="" style="edgeStyle=orthogonalEdgeStyle;rounded=0;orthogonalLoop=1;jettySize=auto;html=1;" edge="1" parent="1" source="bobE95oRSobrlzRdIuCV-2" target="bobE95oRSobrlzRdIuCV-4">
          <mxGeometry relative="1" as="geometry" />
        </mxCell>
        <mxCell id="bobE95oRSobrlzRdIuCV-2" value="ログイン画面(login)" style="rounded=1;whiteSpace=wrap;html=1;" vertex="1" parent="1">
          <mxGeometry x="210" y="200" width="120" height="60" as="geometry" />
        </mxCell>
        <mxCell id="bobE95oRSobrlzRdIuCV-4" value="タスク一覧画面(index)" style="rounded=1;whiteSpace=wrap;html=1;" vertex="1" parent="1">
          <mxGeometry x="370" y="200" width="160" height="60" as="geometry" />
        </mxCell>
        <mxCell id="bobE95oRSobrlzRdIuCV-6" value="未完了タスク一覧画面" style="rounded=1;whiteSpace=wrap;html=1;" vertex="1" parent="1">
          <mxGeometry x="660" y="200" width="130" height="60" as="geometry" />
        </mxCell>
        <mxCell id="bobE95oRSobrlzRdIuCV-8" value="完了タスク一覧画面" style="whiteSpace=wrap;html=1;rounded=1;" vertex="1" parent="1">
          <mxGeometry x="410" y="340" width="120" height="60" as="geometry" />
        </mxCell>
        <mxCell id="bobE95oRSobrlzRdIuCV-10" value="ユーザー登録画面" style="rounded=1;whiteSpace=wrap;html=1;" vertex="1" parent="1">
          <mxGeometry x="210" y="340" width="120" height="60" as="geometry" />
        </mxCell>
        <mxCell id="bobE95oRSobrlzRdIuCV-12" value="" style="endArrow=classic;html=1;rounded=0;entryX=0;entryY=0.5;entryDx=0;entryDy=0;" edge="1" parent="1" target="bobE95oRSobrlzRdIuCV-2">
          <mxGeometry width="50" height="50" relative="1" as="geometry">
            <mxPoint x="130" y="230" as="sourcePoint" />
            <mxPoint x="180" y="180" as="targetPoint" />
          </mxGeometry>
        </mxCell>
        <mxCell id="bobE95oRSobrlzRdIuCV-13" value="" style="endArrow=classic;startArrow=classic;html=1;rounded=0;exitX=0.5;exitY=0;exitDx=0;exitDy=0;entryX=0.5;entryY=1;entryDx=0;entryDy=0;" edge="1" parent="1" source="bobE95oRSobrlzRdIuCV-10" target="bobE95oRSobrlzRdIuCV-2">
          <mxGeometry width="50" height="50" relative="1" as="geometry">
            <mxPoint x="390" y="300" as="sourcePoint" />
            <mxPoint x="440" y="250" as="targetPoint" />
          </mxGeometry>
        </mxCell>
        <mxCell id="bobE95oRSobrlzRdIuCV-14" value="" style="endArrow=classic;startArrow=classic;html=1;rounded=0;exitX=0.5;exitY=0;exitDx=0;exitDy=0;entryX=0.5;entryY=1;entryDx=0;entryDy=0;" edge="1" parent="1">
          <mxGeometry width="50" height="50" relative="1" as="geometry">
            <mxPoint x="469.5" y="340" as="sourcePoint" />
            <mxPoint x="469.5" y="260" as="targetPoint" />
          </mxGeometry>
        </mxCell>
        <mxCell id="bobE95oRSobrlzRdIuCV-15" value="" style="endArrow=classic;startArrow=classic;html=1;rounded=0;exitX=0.5;exitY=0;exitDx=0;exitDy=0;entryX=0;entryY=0.5;entryDx=0;entryDy=0;" edge="1" parent="1" target="bobE95oRSobrlzRdIuCV-6">
          <mxGeometry width="50" height="50" relative="1" as="geometry">
            <mxPoint x="530" y="229.5" as="sourcePoint" />
            <mxPoint x="590" y="229.5" as="targetPoint" />
          </mxGeometry>
        </mxCell>
        <mxCell id="bobE95oRSobrlzRdIuCV-16" value="戻るボタン" style="text;html=1;align=center;verticalAlign=middle;whiteSpace=wrap;rounded=0;" vertex="1" parent="1">
          <mxGeometry x="270" y="270" width="80" height="30" as="geometry" />
        </mxCell>
        <mxCell id="bobE95oRSobrlzRdIuCV-17" value="新規登録ボタン" style="text;html=1;align=center;verticalAlign=middle;whiteSpace=wrap;rounded=0;" vertex="1" parent="1">
          <mxGeometry x="180" y="310" width="90" height="30" as="geometry" />
        </mxCell>
        <mxCell id="bobE95oRSobrlzRdIuCV-18" value="戻るボタン" style="text;html=1;align=center;verticalAlign=middle;whiteSpace=wrap;rounded=0;" vertex="1" parent="1">
          <mxGeometry x="470" y="270" width="80" height="30" as="geometry" />
        </mxCell>
        <mxCell id="bobE95oRSobrlzRdIuCV-19" value="完了一覧表示ボタン" style="text;html=1;align=center;verticalAlign=middle;whiteSpace=wrap;rounded=0;" vertex="1" parent="1">
          <mxGeometry x="340" y="310" width="130" height="30" as="geometry" />
        </mxCell>
        <mxCell id="bobE95oRSobrlzRdIuCV-20" value="未完了一覧表示ボタン" style="text;html=1;align=center;verticalAlign=middle;whiteSpace=wrap;rounded=0;" vertex="1" parent="1">
          <mxGeometry x="530" y="230" width="130" height="30" as="geometry" />
        </mxCell>
        <mxCell id="bobE95oRSobrlzRdIuCV-21" value="戻るボタン" style="text;html=1;align=center;verticalAlign=middle;whiteSpace=wrap;rounded=0;" vertex="1" parent="1">
          <mxGeometry x="530" y="200" width="80" height="30" as="geometry" />
        </mxCell>
        <mxCell id="bobE95oRSobrlzRdIuCV-22" value="" style="endArrow=classic;html=1;rounded=0;exitX=0.115;exitY=-0.007;exitDx=0;exitDy=0;exitPerimeter=0;" edge="1" parent="1" source="bobE95oRSobrlzRdIuCV-4">
          <mxGeometry width="50" height="50" relative="1" as="geometry">
            <mxPoint x="420" y="200" as="sourcePoint" />
            <mxPoint x="520" y="200" as="targetPoint" />
            <Array as="points">
              <mxPoint x="388" y="120" />
              <mxPoint x="520" y="120" />
            </Array>
          </mxGeometry>
        </mxCell>
        <mxCell id="bobE95oRSobrlzRdIuCV-23" value="タスク登録ボタン" style="text;html=1;align=center;verticalAlign=middle;whiteSpace=wrap;rounded=0;" vertex="1" parent="1">
          <mxGeometry x="400" y="120" width="100" height="30" as="geometry" />
        </mxCell>
        <mxCell id="bobE95oRSobrlzRdIuCV-24" value="検索/削除/ソートボタン" style="text;html=1;align=center;verticalAlign=middle;whiteSpace=wrap;rounded=0;" vertex="1" parent="1">
          <mxGeometry x="377" y="90" width="146" height="30" as="geometry" />
        </mxCell>
      </root>
    </mxGraphModel>
  </diagram>
</mxfile>
